/* XPM */
static char * mouse_cursor_xpm[] = {
"25 24 3 1",
" 	c None",
".	c #000000",
"+	c #FFFFFF",
"                         ",
"                         ",
"       .                 ",
"       ..                ",
"       .+.               ",
"       .++.              ",
"       .+++.             ",
"       .++++.            ",
"       .+++++.           ",
"       .++++++.          ",
"       .+++++++.         ",
"       .++++++++.        ",
"       .+++++++++.       ",
"       .++++++.....      ",
"       .+++.++.          ",
"       .++..++.          ",
"       .+.  .++.         ",
"       ..   .++.         ",
"       .     .++.        ",
"             .++.        ",
"              .++.       ",
"              .++.       ",
"               ..        ",
"                         "};
